<svg xmlns="http://www.w3.org/2000/svg" width="2401" height="397"><path fill="#fd1601" fill-rule="evenodd" d="m815.545 30.25-.493 2.25-2.548 30.427-2.548 30.428 1.272.807 1.272.807h22l1.104-.734 1.105-.735-2.374-31.5-2.374-31.5-.449-1.25-.449-1.25h-15.025l-.493 2.25"/><path fill="#fee005" fill-rule="evenodd" d="m809.297 110.25-.948 1.25-3.34 39-3.339 39-.445 6.703-.445 6.704 2.427.609 2.427.609 19.102-.313 19.102-.312.499-.501.499-.501-3.413-45.937-3.412-45.936-1.256-.797-1.255-.797-12.628-.016-12.627-.015-.948 1.25"/><path fill="#0be00e" fill-rule="evenodd" d="m799.46 227.765-1.039.735-5.38 62-5.38 62-.442 6.164-.441 6.164 5.361.546 5.361.547 29.75.47 29.75.471-.019-4.681-.02-4.681-5.426-64.407-5.426-64.408-1.305-.827-1.304-.827h-43l-1.04.734"/><path fill="#fff" fill-rule="evenodd" d="m750.181 30.214-1.99 5.286L684.75 199l-63.441 163.5-.595 1.677-.595 1.677 1.313 1.09 1.314 1.09 26.363-.267 26.364-.267L723.216 198l47.743-169.5-.241-1.5-.241-1.5-9.153-.286-9.153-.287-1.99 5.287m123.241-2.871-.515 1.342 47.81 169.908 47.81 169.907 26.364.267 26.363.267 1.314-1.09 1.313-1.09-.595-1.677-.595-1.677L959.25 200 895.809 36.5l-1.976-5.25-1.977-5.25h-17.919l-.515 1.343m440.825 169.395.253 170.762 24.815.268 24.815.267-.468-140.767-.468-140.768-.584-4-.584-4 4.382 17 4.382 17 28.19 67.5 28.189 67.5 24.563 59 24.563 59 .994 1.273.994 1.273 17.06-.273 17.06-.273 51.785-125.5 51.785-125.5 2.186-6.5 2.186-6.5 3.32-12.5 3.32-12.5-.461 6.5-.462 6.5-1.085 23-1.084 23 .303 115 .304 115 26.25.267 26.25.266V26h-71.501l-47.284 113.25-47.284 113.25-7.006 20-7.006 20-.549 1.5-.55 1.5-1.882-7.316-1.881-7.316-3.584-10.379-3.584-10.378-47.849-116.806L1389.191 26.5l-37.598-.262-37.599-.262.253 170.762M1851.489 27.25l-.448 1.25-63.164 167.5-63.165 167.5-.475 2.265-.476 2.266 29.265-.266 29.265-.265 15.104-44.239 15.105-44.24 68.128-.01 68.129-.011 9.815 27.25 9.816 27.25 6.14 17 6.141 17 29.166.265 29.165.265v-2.263l-63.617-169.883L1911.766 26h-59.829l-.448 1.25m234.758 169.5.253 170.75 25.75.267 25.75.267-.08-129.267-.079-129.267-.749-8.5-.749-8.5.245-.333.245-.333 1.927 4.356 1.926 4.356 5.496 8.977 5.495 8.977 79.792 123 79.793 123 1.537 1.765 1.538 1.765 29.081-.265 29.082-.265.253-170.75.253-170.75h-52.082l.368 132.75.368 132.75.786 3 .787 3-5.867-9.615-5.866-9.616-80.994-126.134L2149.512 26h-63.518l.253 170.75M1878.6 84.039l-1.666 9.107-24.102 68.677-24.102 68.677-.481 1.75-.482 1.75H1933v-1.757l-24.007-67.871-24.007-67.872-2.021-10.444-2.02-10.445-.34-.339-.339-.339-1.666 9.106"/><path fill="#ea7704" fill-rule="evenodd" d="M15.231 48.75 15.5 71.5l48.747.26 48.746.259.254 147.741.253 147.74h53l.253-147.75.254-147.75H265V26H14.962l.269 22.75m300.016 148 .253 170.75h53l.257-70.39.257-70.39 18.743.541 18.743.541 6.5 2.074 6.5 2.074 5.481 3.707 5.481 3.707 4.872 5.068 4.871 5.068 5.775 8 5.776 8 30.652 51.25L513.06 368h62.154l-.482-1.25-.482-1.25-35.207-56-35.206-56-6.756-9-6.756-9-5.321-5.813-5.32-5.813-5.698-4.385-5.697-4.384-3.645-1.738L461 211.63v-1.265l5.75-1.783 5.75-1.784 8.243-3.831 8.243-3.831 6.979-4.682 6.978-4.682 7.875-8.202 7.875-8.203 4.111-6.933 4.111-6.934 2.585-6.885 2.584-6.884 1.612-7.116 1.611-7.115-.021-14.5-.022-14.5-1.59-7.115-1.59-7.116-2.542-6.754L527 74.761l-3.61-5.942-3.61-5.942-5.569-6.016-5.57-6.016-6.219-4.438-6.219-4.438-9.351-4.394-9.352-4.394-7.537-2.083-7.537-2.083-9.963-1.502-9.963-1.501-63.753-.006L314.994 26l.253 170.75m756 0 .253 170.75h53l.257-72.25.256-72.25H1244v-46h-119V72.015l64.25-.258 64.25-.257.269-22.75.269-22.75h-183.044l.253 170.75M369 126.417V183h50.855l7.823-1.086 7.822-1.086 7.5-2.912 7.5-2.911 5.609-4.253 5.61-4.252 4.179-4.856 4.18-4.856 2.89-5.724 2.889-5.724 1.572-6.064 1.571-6.065V112.42l-1.532-5.96-1.531-5.96-2.678-5.341-2.678-5.342-5.43-4.962-5.43-4.963-4.956-2.511-4.957-2.512-7.654-2.11-7.654-2.111-32.75-.407-32.75-.407v56.583"/></svg>