<svg xmlns="http://www.w3.org/2000/svg" width="2401" height="397"><path fill="#fff" fill-rule="evenodd" d="M15.231 48.75 15.5 71.5l48.747.26 48.746.259.254 147.741.253 147.74 26.75.266 26.75.267V72h98V26H14.962l.269 22.75m300.016 148 .253 170.75 26.75.266 26.75.267V226.72l18.75.541 18.75.541 6.5 2.074 6.5 2.074 5.034 3.406 5.034 3.406 4.852 4.869 4.853 4.869 5.598 7.5 5.598 7.5 28.712 48 28.711 48 2.529 4.25 2.53 4.25h62.263l-.49-1.277-.49-1.276-35.195-55.974-35.195-55.973-7.07-9.5-7.069-9.5-8.63-8.511-8.629-8.511-5.721-2.989-5.72-2.989-.003-.553-.002-.553 7.25-2.324 7.25-2.323 7-3.489 7-3.489 6.573-4.344 6.573-4.343 8.023-8.357 8.024-8.358 4.153-6.991 4.153-6.991 3.053-8.364 3.052-8.363 1.546-10.079 1.546-10.079-.579-10.094-.579-10.094-1.477-7.021-1.477-7.022-2.542-6.754L527 74.761l-3.643-5.997-3.643-5.997-6.003-6.417-6.004-6.418-8.103-5.361-8.104-5.362-7.197-3.037-7.197-3.038-7.34-2.059-7.34-2.06-9.963-1.502-9.963-1.501-63.753-.006L314.994 26l.253 170.75m756 0 .253 170.75h53l.257-72.25.256-72.25H1244v-46h-119V72.015l64.25-.258 64.25-.257.269-22.75.269-22.75h-183.044l.253 170.75M369 126.417V183h50.855l7.761-1.079 7.76-1.08 6.562-2.459 6.562-2.459 5-3.328 5-3.328 5.245-5.361 5.246-5.36 3.419-6.523 3.42-6.523 1.585-6.144 1.585-6.145V112.42l-1.478-5.674-1.478-5.674-2.228-4.786-2.228-4.786-5.597-5.634-5.598-5.633-5.293-2.682-5.292-2.682-7.654-2.11-7.654-2.111-32.75-.407-32.75-.407v56.583"/><path fill="#fd1601" fill-rule="evenodd" d="m815.545 30.25-.493 2.25-2.548 30.427-2.548 30.428 1.272.807 1.272.807h22l1.104-.734 1.105-.735-2.374-31.5-2.374-31.5-.449-1.25-.449-1.25h-15.025l-.493 2.25"/><path fill="#fee005" fill-rule="evenodd" d="m809.297 110.25-.948 1.25-3.34 39-3.339 39-.445 6.703-.445 6.704 2.427.609 2.427.609 19.102-.313 19.102-.312.499-.501.499-.501-3.413-45.937-3.412-45.936-1.256-.797-1.255-.797-12.628-.016-12.627-.015-.948 1.25"/><path fill="#0be00e" fill-rule="evenodd" d="m799.46 227.765-1.039.735-5.38 62-5.38 62-.442 6.164-.441 6.164 5.361.546 5.361.547 29.75.47 29.75.471-.019-4.681-.02-4.681-5.426-64.407-5.426-64.408-1.305-.827-1.304-.827h-43l-1.04.734"/><path fill="#394349" fill-rule="evenodd" d="m750.181 30.214-1.99 5.286L684.75 199l-63.441 163.5-.595 1.677-.595 1.677 1.313 1.09 1.314 1.09 26.363-.267 26.364-.267L723.216 198l47.743-169.5-.241-1.5-.241-1.5-9.153-.286-9.153-.287-1.99 5.287m123.241-2.871-.515 1.342 47.81 169.908 47.81 169.907 26.364.267 26.363.267 1.314-1.09 1.313-1.09-.595-1.677-.595-1.677L959.25 200 895.809 36.5l-1.976-5.25-1.977-5.25h-17.919l-.515 1.343m440.825 169.395.253 170.762 24.75.267 24.75.268-.036-127.768-.037-127.767-.919-16.461-.918-16.462.262-.263.263-.262 4.212 16.954 4.213 16.955 52.653 126.27 52.654 126.269.968 1.273.968 1.273 17.033-.273 17.033-.273 45.816-111 45.816-111 7.519-18.549 7.518-18.548 3.998-14.952 3.998-14.951-.481 7-.48 7-1.077 23-1.077 23 .3 114.5.301 114.5 26.25.267 26.25.266V26l-35.75.01-35.75.01-47.257 113.24-47.257 113.24-6.993 19.752-6.993 19.751V295h-2v-3.124l-2.639-9.171-2.638-9.171-3.781-10.017-3.782-10.017-46.5-113.5-46.5-113.5-37.583-.262-37.583-.262.253 170.762m537.27-168.988-.697 1.75-63.047 167-63.046 167-.483 2.265-.483 2.266 29.253-.266 29.253-.265 15.116-44.242 15.117-44.243 68.149-.007 68.148-.008 2.625 7.25 2.626 7.25 13.329 37 13.329 37 29.147.265 29.147.265v-2.104l-62.62-167.213L1913.759 31.5l-.977-2.75-.978-2.75h-59.59l-.697 1.75m234.73 169 .253 170.75h51l.254-126.711.254-126.71-.84-10.79-.84-10.789.157-.238.157-.237 4.261 8.139 4.261 8.14 83.065 128.098 83.065 128.098 1.521 1.765 1.522 1.765 29.081-.265 29.082-.265.253-170.75.253-170.75h-52.088l.374 132.75.375 132.75.775 3 .775 3-5.858-9.574-5.859-9.573-81-126.169-81-126.169-31.753-.008-31.753-.007.253 170.75M1879.512 79.183l-.686 4.317-1.878 7.5-1.877 7.5-23.536 66.995L1828 232.49V234h105v-1.866l-23.108-65.317-23.108-65.317-1.331-4.5-1.33-4.5-1.575-8.43-1.574-8.43-.388-.387-.387-.388-.687 4.318"/></svg>